# xmcd
#
# Track frame offsets: 
#        150
#        20230
#        41995
#        57638
#        74298
#        93180
#        110863
#        129855
#        151270
#        173243
#
# Disc length: 2532 seconds
#
# Revision: 1
# Processed by: cddbd v1.5.2PL0 Copyright (c) Steve Scherf et al.
# Submitted via: ExactAudioCopyFreeDBPlugin 1.0
#
DISCID=8d09e20a
DTITLE=The Brief Encounter - The Brief Encounter
DYEAR=1977
DGENRE=Funk
TTITLE0=The Brief Encounter (Introduction)
TTITLE1=Visions
TTITLE2=Smile
TTITLE3=Just One Moment
TTITLE4=Loving And Caring
TTITLE5=In A Special Kind Of Way
TTITLE6=Good Thing, Bad Thing
TTITLE7=Time Is Moving
TTITLE8=Get A Good Feeling
TTITLE9=We're Gonna Have A Good Time
EXTD=
EXTT0=
EXTT1=
EXTT2=
EXTT3=
EXTT4=
EXTT5=
EXTT6=
EXTT7=
EXTT8=
EXTT9=
PLAYORDER=
